<?xml version="1.0" encoding="iso-8859-1"?>
<!-- Generator: Adobe Illustrator 16.0.0, SVG Export Plug-In . SVG Version: 6.00 Build 0)  -->
<!DOCTYPE svg PUBLIC "-//W3C//DTD SVG 1.1//EN" "http://www.w3.org/Graphics/SVG/1.1/DTD/svg11.dtd">
<svg version="1.1" id="Capa_1" xmlns="http://www.w3.org/2000/svg" xmlns:xlink="http://www.w3.org/1999/xlink" x="0px" y="0px"
	 width="410px" height="410px" viewBox="0 0 410 410" style="enable-background:new 0 0 410 410;"
	 xml:space="preserve">

<path d="M 20,20 L 20,400 L 400,400 L 400,20 L 20,20 L 20,30 L 390,30 L 390,390  L 30,390  L 30 20 z" style="stroke:black;stroke-width:10" />

<path d="M302.926,204.411l-127.908-91.363c-5.901-4.377-12.181-4.853-18.842-1.425c-6.661,3.237-9.995,8.662-9.995,16.276v182.725
c0,7.617,3.333,13.038,9.995,16.275c6.661,3.429,12.941,2.953,18.842-1.427l127.908-91.358c5.141-3.617,7.7-8.565,7.7-14.843C310.626,212.983,308.066,208.035,302.926,204.411z"/>

</svg>

